{
	"asset":{
		"generator":"Khronos glTF Blender I/O v4.4.56",
		"version":"2.0"
	},
	"extensionsUsed":[
		"KHR_materials_specular"
	],
	"scene":0,
	"scenes":[
		{
			"name":"Scene",
			"nodes":[
				0
			]
		}
	],
	"nodes":[
		{
			"mesh":0,
			"name":"horse v0",
			"rotation":[
				0,
				0.7071068286895752,
				0,
				0.7071068286895752
			],
			"scale":[
				0.4000000059604645,
				0.4000000059604645,
				0.4000000059604645
			]
		}
	],
	"materials":[
		{
			"doubleSided":true,
			"extensions":{
				"KHR_materials_specular":{
					"specularFactor":0
				}
			},
			"name":"Opaque(160,160,160)",
			"pbrMetallicRoughness":{
				"baseColorFactor":[
					0.6274510025978088,
					0.6274510025978088,
					0.6274510025978088,
					1
				],
				"metallicFactor":0
			}
		}
	],
	"meshes":[
		{
			"name":"horse v0",
			"primitives":[
				{
					"attributes":{
						"POSITION":0,
						"NORMAL":1,
						"TEXCOORD_0":2
					},
					"indices":3,
					"material":0
				}
			]
		}
	],
	"accessors":[
		{
			"bufferView":0,
			"componentType":5126,
			"count":9428,
			"max":[
				1.2999999523162842,
				4.199999809265137,
				1.2944539785385132
			],
			"min":[
				-1.5,
				0,
				-1.2944539785385132
			],
			"type":"VEC3"
		},
		{
			"bufferView":1,
			"componentType":5126,
			"count":9428,
			"type":"VEC3"
		},
		{
			"bufferView":2,
			"componentType":5126,
			"count":9428,
			"type":"VEC2"
		},
		{
			"bufferView":3,
			"componentType":5123,
			"count":40956,
			"type":"SCALAR"
		}
	],
	"bufferViews":[
		{
			"buffer":0,
			"byteLength":113136,
			"byteOffset":0,
			"target":34962
		},
		{
			"buffer":0,
			"byteLength":113136,
			"byteOffset":113136,
			"target":34962
		},
		{
			"buffer":0,
			"byteLength":75424,
			"byteOffset":226272,
			"target":34962
		},
		{
			"buffer":0,
			"byteLength":81912,
			"byteOffset":301696,
			"target":34963
		}
	],
	"buffers":[
		{
			"byteLength":383608,
			"uri":"knight.bin"
		}
	]
}
