{
	"asset":{
		"generator":"Khronos glTF Blender I/O v4.4.56",
		"version":"2.0"
	},
	"extensionsUsed":[
		"KHR_materials_specular"
	],
	"scene":0,
	"scenes":[
		{
			"name":"Scene",
			"nodes":[
				0
			]
		}
	],
	"nodes":[
		{
			"mesh":0,
			"name":"queen v1",
			"scale":[
				0.3799999952316284,
				0.3799999952316284,
				0.3799999952316284
			]
		}
	],
	"materials":[
		{
			"doubleSided":true,
			"extensions":{
				"KHR_materials_specular":{
					"specularFactor":0
				}
			},
			"name":"Opaque(160,160,160)",
			"pbrMetallicRoughness":{
				"baseColorFactor":[
					0.6274510025978088,
					0.6274510025978088,
					0.6274510025978088,
					1
				],
				"metallicFactor":0
			}
		}
	],
	"meshes":[
		{
			"name":"queen v1",
			"primitives":[
				{
					"attributes":{
						"POSITION":0,
						"NORMAL":1,
						"TEXCOORD_0":2
					},
					"indices":3,
					"material":0
				}
			]
		}
	],
	"accessors":[
		{
			"bufferView":0,
			"componentType":5126,
			"count":3081,
			"max":[
				1.2999999523162842,
				5.199999809265137,
				1.2944539785385132
			],
			"min":[
				-1.2999999523162842,
				0,
				-1.2944539785385132
			],
			"type":"VEC3"
		},
		{
			"bufferView":1,
			"componentType":5126,
			"count":3081,
			"type":"VEC3"
		},
		{
			"bufferView":2,
			"componentType":5126,
			"count":3081,
			"type":"VEC2"
		},
		{
			"bufferView":3,
			"componentType":5123,
			"count":14856,
			"type":"SCALAR"
		}
	],
	"bufferViews":[
		{
			"buffer":0,
			"byteLength":36972,
			"byteOffset":0,
			"target":34962
		},
		{
			"buffer":0,
			"byteLength":36972,
			"byteOffset":36972,
			"target":34962
		},
		{
			"buffer":0,
			"byteLength":24648,
			"byteOffset":73944,
			"target":34962
		},
		{
			"buffer":0,
			"byteLength":29712,
			"byteOffset":98592,
			"target":34963
		}
	],
	"buffers":[
		{
			"byteLength":128304,
			"uri":"queen.bin"
		}
	]
}
