{
	"asset":{
		"generator":"Khronos glTF Blender I/O v4.4.56",
		"version":"2.0"
	},
	"extensionsUsed":[
		"KHR_materials_specular"
	],
	"scene":0,
	"scenes":[
		{
			"name":"Scene",
			"nodes":[
				0
			]
		}
	],
	"nodes":[
		{
			"mesh":0,
			"name":"rook v1",
			"scale":[
				0.03799999877810478,
				0.03799999877810478,
				0.03799999877810478
			]
		}
	],
	"materials":[
		{
			"doubleSided":true,
			"extensions":{
				"KHR_materials_specular":{
					"specularFactor":0
				}
			},
			"name":"Steel_-_Satin",
			"pbrMetallicRoughness":{
				"baseColorFactor":[
					0.6274510025978088,
					0.6274510025978088,
					0.6274510025978088,
					1
				],
				"metallicFactor":0
			}
		}
	],
	"meshes":[
		{
			"name":"rook v1",
			"primitives":[
				{
					"attributes":{
						"POSITION":0,
						"NORMAL":1
					},
					"indices":2,
					"material":0
				}
			]
		}
	],
	"accessors":[
		{
			"bufferView":0,
			"componentType":5126,
			"count":75166,
			"max":[
				13,
				40,
				12.997295379638672
			],
			"min":[
				-13,
				0,
				-12.997295379638672
			],
			"type":"VEC3"
		},
		{
			"bufferView":1,
			"componentType":5126,
			"count":75166,
			"type":"VEC3"
		},
		{
			"bufferView":2,
			"componentType":5125,
			"count":100986,
			"type":"SCALAR"
		}
	],
	"bufferViews":[
		{
			"buffer":0,
			"byteLength":901992,
			"byteOffset":0,
			"target":34962
		},
		{
			"buffer":0,
			"byteLength":901992,
			"byteOffset":901992,
			"target":34962
		},
		{
			"buffer":0,
			"byteLength":403944,
			"byteOffset":1803984,
			"target":34963
		}
	],
	"buffers":[
		{
			"byteLength":2207928,
			"uri":"rook.bin"
		}
	]
}
