{
	"asset":{
		"generator":"Khronos glTF Blender I/O v4.4.56",
		"version":"2.0"
	},
	"extensionsUsed":[
		"KHR_materials_specular"
	],
	"scene":0,
	"scenes":[
		{
			"name":"Scene",
			"nodes":[
				0
			]
		}
	],
	"nodes":[
		{
			"mesh":0,
			"name":"king v2",
			"scale":[
				0.4000000059604645,
				0.4000000059604645,
				0.4000000059604645
			]
		}
	],
	"materials":[
		{
			"doubleSided":true,
			"extensions":{
				"KHR_materials_specular":{
					"specularFactor":0
				}
			},
			"name":"Opaque(160,160,160)",
			"pbrMetallicRoughness":{
				"baseColorFactor":[
					0.6274510025978088,
					0.6274510025978088,
					0.6274510025978088,
					1
				],
				"metallicFactor":0
			}
		}
	],
	"meshes":[
		{
			"name":"king v2",
			"primitives":[
				{
					"attributes":{
						"POSITION":0,
						"NORMAL":1,
						"TEXCOORD_0":2
					},
					"indices":3,
					"material":0
				}
			]
		}
	],
	"accessors":[
		{
			"bufferView":0,
			"componentType":5126,
			"count":2641,
			"max":[
				1.294113039970398,
				5.999998092651367,
				1.2985279560089111
			],
			"min":[
				-1.2999999523162842,
				0,
				-1.2985279560089111
			],
			"type":"VEC3"
		},
		{
			"bufferView":1,
			"componentType":5126,
			"count":2641,
			"type":"VEC3"
		},
		{
			"bufferView":2,
			"componentType":5126,
			"count":2641,
			"type":"VEC2"
		},
		{
			"bufferView":3,
			"componentType":5123,
			"count":11460,
			"type":"SCALAR"
		}
	],
	"bufferViews":[
		{
			"buffer":0,
			"byteLength":31692,
			"byteOffset":0,
			"target":34962
		},
		{
			"buffer":0,
			"byteLength":31692,
			"byteOffset":31692,
			"target":34962
		},
		{
			"buffer":0,
			"byteLength":21128,
			"byteOffset":63384,
			"target":34962
		},
		{
			"buffer":0,
			"byteLength":22920,
			"byteOffset":84512,
			"target":34963
		}
	],
	"buffers":[
		{
			"byteLength":107432,
			"uri":"king.bin"
		}
	]
}
